<mxfile host="app.diagrams.net" modified="2021-11-26T09:08:29.630Z" agent="5.0 (Windows NT 10.0; Win64; x64) AppleWebKit/537.36 (KHTML, like Gecko) Chrome/96.0.4664.55 Safari/537.36 Edg/96.0.1054.34" etag="ikPmsIxrMefZZgIpt5r6" version="15.0.2" type="github">
  <diagram id="q11Liz5Tg-pzUaIL8RT7" name="Page-1">
    <mxGraphModel dx="1038" dy="583" grid="1" gridSize="10" guides="1" tooltips="1" connect="1" arrows="1" fold="1" page="1" pageScale="1" pageWidth="827" pageHeight="1169" math="0" shadow="0">
      <root>
        <mxCell id="0" />
        <mxCell id="1" parent="0" />
        <mxCell id="TmN5jb0BhGN0s1OxQMUw-1" value="" style="rounded=0;html=1;jettySize=auto;orthogonalLoop=1;fontSize=11;endArrow=block;endFill=0;endSize=8;strokeWidth=1;shadow=0;labelBackgroundColor=none;edgeStyle=orthogonalEdgeStyle;" edge="1" parent="1" source="TmN5jb0BhGN0s1OxQMUw-2" target="TmN5jb0BhGN0s1OxQMUw-5">
          <mxGeometry relative="1" as="geometry" />
        </mxCell>
        <mxCell id="TmN5jb0BhGN0s1OxQMUw-2" value="python compile" style="rounded=1;whiteSpace=wrap;html=1;fontSize=12;glass=0;strokeWidth=1;shadow=0;" vertex="1" parent="1">
          <mxGeometry x="185" y="350" width="120" height="40" as="geometry" />
        </mxCell>
        <mxCell id="TmN5jb0BhGN0s1OxQMUw-3" value="No" style="rounded=0;html=1;jettySize=auto;orthogonalLoop=1;fontSize=11;endArrow=block;endFill=0;endSize=8;strokeWidth=1;shadow=0;labelBackgroundColor=none;edgeStyle=orthogonalEdgeStyle;" edge="1" parent="1" source="TmN5jb0BhGN0s1OxQMUw-5">
          <mxGeometry y="20" relative="1" as="geometry">
            <mxPoint as="offset" />
            <mxPoint x="245" y="610" as="targetPoint" />
          </mxGeometry>
        </mxCell>
        <mxCell id="TmN5jb0BhGN0s1OxQMUw-4" value="Yes" style="edgeStyle=orthogonalEdgeStyle;rounded=0;html=1;jettySize=auto;orthogonalLoop=1;fontSize=11;endArrow=block;endFill=0;endSize=8;strokeWidth=1;shadow=0;labelBackgroundColor=none;" edge="1" parent="1" source="TmN5jb0BhGN0s1OxQMUw-5" target="TmN5jb0BhGN0s1OxQMUw-7">
          <mxGeometry y="10" relative="1" as="geometry">
            <mxPoint as="offset" />
          </mxGeometry>
        </mxCell>
        <mxCell id="TmN5jb0BhGN0s1OxQMUw-5" value="check_need_md5" style="rhombus;whiteSpace=wrap;html=1;shadow=0;fontFamily=Helvetica;fontSize=12;align=center;strokeWidth=1;spacing=6;spacingTop=-4;" vertex="1" parent="1">
          <mxGeometry x="180" y="490" width="130" height="80" as="geometry" />
        </mxCell>
        <mxCell id="TmN5jb0BhGN0s1OxQMUw-6" style="edgeStyle=orthogonalEdgeStyle;rounded=0;orthogonalLoop=1;jettySize=auto;html=1;entryX=0.5;entryY=0;entryDx=0;entryDy=0;" edge="1" parent="1" source="TmN5jb0BhGN0s1OxQMUw-7">
          <mxGeometry relative="1" as="geometry">
            <mxPoint x="245" y="610" as="targetPoint" />
            <Array as="points">
              <mxPoint x="430" y="580" />
              <mxPoint x="245" y="580" />
            </Array>
          </mxGeometry>
        </mxCell>
        <mxCell id="TmN5jb0BhGN0s1OxQMUw-7" value="compiler_unit:&lt;br&gt;need_md5=true" style="rounded=1;whiteSpace=wrap;html=1;fontSize=12;glass=0;strokeWidth=1;shadow=0;" vertex="1" parent="1">
          <mxGeometry x="360" y="510" width="140" height="40" as="geometry" />
        </mxCell>
        <mxCell id="TmN5jb0BhGN0s1OxQMUw-8" value="compiler_class" style="rounded=1;whiteSpace=wrap;html=1;fontSize=12;glass=0;strokeWidth=1;shadow=0;" vertex="1" parent="1">
          <mxGeometry x="185" y="420" width="120" height="40" as="geometry" />
        </mxCell>
        <mxCell id="TmN5jb0BhGN0s1OxQMUw-9" value="Yes" style="edgeStyle=orthogonalEdgeStyle;rounded=0;html=1;jettySize=auto;orthogonalLoop=1;fontSize=11;endArrow=block;endFill=0;endSize=8;strokeWidth=1;shadow=0;labelBackgroundColor=none;" edge="1" parent="1" source="TmN5jb0BhGN0s1OxQMUw-10" target="TmN5jb0BhGN0s1OxQMUw-11">
          <mxGeometry y="10" relative="1" as="geometry">
            <mxPoint as="offset" />
          </mxGeometry>
        </mxCell>
        <mxCell id="TmN5jb0BhGN0s1OxQMUw-10" value="check_need_md5" style="rhombus;whiteSpace=wrap;html=1;shadow=0;fontFamily=Helvetica;fontSize=12;align=center;strokeWidth=1;spacing=6;spacingTop=-4;" vertex="1" parent="1">
          <mxGeometry x="180" y="680" width="130" height="80" as="geometry" />
        </mxCell>
        <mxCell id="TmN5jb0BhGN0s1OxQMUw-11" value="cal and set md5 to PyCodeObject&amp;nbsp;" style="rounded=1;whiteSpace=wrap;html=1;fontSize=12;glass=0;strokeWidth=1;shadow=0;" vertex="1" parent="1">
          <mxGeometry x="360" y="700" width="140" height="40" as="geometry" />
        </mxCell>
        <mxCell id="TmN5jb0BhGN0s1OxQMUw-12" style="edgeStyle=orthogonalEdgeStyle;rounded=0;orthogonalLoop=1;jettySize=auto;html=1;" edge="1" parent="1" source="TmN5jb0BhGN0s1OxQMUw-13" target="TmN5jb0BhGN0s1OxQMUw-10">
          <mxGeometry relative="1" as="geometry" />
        </mxCell>
        <mxCell id="TmN5jb0BhGN0s1OxQMUw-13" value="compiler_function" style="rounded=1;whiteSpace=wrap;html=1;fontSize=12;glass=0;strokeWidth=1;shadow=0;" vertex="1" parent="1">
          <mxGeometry x="185" y="610" width="120" height="40" as="geometry" />
        </mxCell>
        <mxCell id="TmN5jb0BhGN0s1OxQMUw-14" value="&lt;font style=&quot;font-size: 17px&quot;&gt;python根据标记生成md5过程&lt;/font&gt;" style="text;html=1;strokeColor=none;fillColor=none;align=center;verticalAlign=middle;whiteSpace=wrap;rounded=0;" vertex="1" parent="1">
          <mxGeometry x="230" y="780" width="240" height="20" as="geometry" />
        </mxCell>
      </root>
    </mxGraphModel>
  </diagram>
</mxfile>
